<svg version="1" xmlns="http://www.w3.org/2000/svg" width="640" height="640" viewBox="0 0 480.000000 480.000000"><path d="M235.8 7.6c-1.6.8-2.8 1.1-2.8.7 0-.4-.4-.2-.8.5-.7 1-33.1 19.9-58.2 34-2.5 1.3-4.9 2.8-5.5 3.2-1.4 1.1-14.5 8.5-29.5 16.6-1.9 1.1-4 2.5-4.8 3.1-.7.7-1.8 1.3-2.4 1.3-.6 0-1.9.6-2.7 1.4-.9.8-8.6 5.3-17.1 10-16.3 9.1-18 10.1-22 12.7-2.4 1.6-21.9 12.6-32.5 18.3-2.7 1.5-8.6 4.9-13 7.5l-8 4.7v236.8l8 4.7c4.4 2.6 10.3 6 13 7.5 10.6 5.7 30.1 16.7 32.5 18.3 4 2.6 5.7 3.6 22 12.7 8.5 4.7 16.2 9.2 17.1 10 .8.8 2.1 1.4 2.7 1.4.6 0 1.7.6 2.4 1.2.8.7 2.9 2.1 4.8 3.2 15 8.1 28.1 15.5 29.5 16.6.6.4 3 1.9 5.5 3.2 25.1 14.1 57.5 33 58.2 34 .4.7.8 1 .8.5 0-.4 1.3-.1 3 .8 4.1 2.1 6.8 1.9 12-1.1 2.5-1.4 7-4 10-5.7 7.2-4 43-24.5 49.8-28.6 2.9-1.7 5.6-3.1 5.9-3.1.4 0 1.4-.6 2.2-1.4.9-.7 4.1-2.7 7.1-4.3 10-5.5 29.3-16.4 32.9-18.7 2-1.2 9.6-5.6 16.9-9.7 22.2-12.3 23.7-13.2 24.2-13.9.3-.4 5.4-3.3 11.3-6.6 5.9-3.2 12.5-6.8 14.5-8 2-1.2 5.9-3.3 8.5-4.8 2.7-1.5 7-4 9.5-5.5l4.7-2.7V121.6l-9.5-5.5c-5.2-2.9-11.2-6.3-13.2-7.5-2-1.1-8.6-4.8-14.5-8-5.9-3.3-11-6.2-11.3-6.6-.3-.4-2.8-2-5.7-3.6-2.8-1.6-10.7-6-17.5-9.8-6.8-3.8-15.9-9-20.3-11.6-7.4-4.4-17.1-9.9-30.5-17.3-3-1.6-6.2-3.6-7.1-4.3-.8-.8-1.8-1.4-2.2-1.4-.3 0-3-1.4-5.9-3.1-6.8-4.1-42.6-24.6-49.8-28.6-3-1.7-7.5-4.3-10-5.7-5.1-2.9-8.3-3.2-12.2-1zm9.7 22.4c1.7 1.2 4.4 2.7 6 3.5 1.7.8 4.4 2.4 6 3.4 1.7 1.1 6.4 3.7 10.5 5.9s10.1 5.5 13.2 7.3c7.5 4.4 29.3 17.2 33.8 19.7 1.9 1.2 5.3 3 7.5 4.2 2.2 1.2 4.2 2.5 4.5 2.9.3.3 2.5 1.6 5 2.8 2.5 1.3 6.3 3.3 8.5 4.6 8.9 5.1 20 11.3 24.8 13.9 2.8 1.5 5.3 3.1 5.6 3.5.3.4 2.2 1.6 4.1 2.5 1.9 1 4.2 2.2 5 2.8.8.5 4.2 2.5 7.5 4.3 5.1 2.9 11.4 6.5 35.8 20.6l2.8 1.6V240c0 101.3-.1 106.5-1.8 107.5-2.7 1.5-10.3 6-24.8 14.4-7.1 4.2-14.6 8.5-16.6 9.6-2 1.1-5.8 3.3-8.5 4.8-6 3.5-11.9 6.9-22.1 12.7-4.3 2.4-9.6 5.5-11.8 6.7-2.2 1.3-6 3.3-8.5 4.6-2.5 1.2-4.7 2.5-5 2.8-.3.4-2.3 1.7-4.5 2.9s-5.6 3-7.5 4.2c-4.5 2.5-26.3 15.3-33.8 19.7-3.1 1.8-9.1 5.1-13.2 7.3s-8.8 4.8-10.5 5.9c-1.6 1-4.3 2.6-6 3.4-1.6.8-4.3 2.3-6 3.5-1.6 1.1-3.6 2-4.3 2-1.1 0-6.8-3-16-8.5-.9-.6-5.7-3.2-10.7-5.9-4.9-2.7-9.2-5.2-9.5-5.5-.3-.3-2.6-1.7-5.2-3.1-4.1-2.2-22.7-12.9-32.8-18.9-1.9-1.1-4.2-2.4-5-2.8-.8-.3-3.1-1.6-5-2.8-1.9-1.2-5.7-3.4-8.5-5-18.3-10.3-35.9-20.2-41-23.2-3.3-2-8.9-5.3-12.5-7.3-3.6-2-12.6-7.2-20-11.5s-14.7-8.5-16.3-9.4l-2.8-1.6V240l.1-106.5 3.7-2.2c2.1-1.3 7.2-4.2 11.3-6.5 4.1-2.3 10.3-5.9 13.8-8 3.4-2.1 6.9-3.8 7.6-3.8.8 0 1.6-.3 1.8-.8.2-.4 3.7-2.7 7.8-5.1 4.1-2.4 9.1-5.4 11-6.6 1.9-1.3 9.8-5.8 17.5-10 21.5-12 22.8-12.7 26.5-15 1.9-1.2 4.2-2.5 5-2.8.8-.4 3.1-1.7 5-2.8 1.9-1.1 8.9-5.2 15.5-9 6.6-3.9 12.7-7.4 13.5-8 2.1-1.3 27.2-15.4 29-16.2.8-.4 4.4-2.5 8-4.7 7.5-4.6 8.4-4.7 12.5-2z"/><path d="M232 143.7c-3.6 1.9-11.9 6.5-18.5 10.2l-12 6.8-.3 9-.3 9-9.2 4.7c-5.1 2.6-11.9 6.2-15.2 8.2-3.3 1.9-8.6 4.7-11.7 6.2-3.2 1.5-6.1 3.4-6.5 4.2-.4.8-1 10.3-1.3 21l-.5 19.4-7.4 4.2c-4.1 2.3-8.1 5-8.8 6-2 2.8-1.9 40.2.2 43.1 1.3 1.8 9.5 6.7 33.7 20 5.1 2.8 6.2 2.8 11.7-.1l4.3-2.3 17.2 9.5c23.1 12.8 31.8 17.2 33.8 17.2.9 0 3.3-.9 5.2-2.1 2-1.2 3.6-1.8 3.6-1.3 0 .4.8.1 1.8-.7.9-.8 2.8-2 4.2-2.8 10.6-6.1 16.7-9.3 17.8-9.4.6 0 1.2-.3 1.2-.6 0-.4 3.8-2.7 8.5-5.1l8.4-4.5 4.3 2.3c2.4 1.2 5 2.2 5.9 2.2 2.5 0 37.9-20.1 39.4-22.4 1.1-1.6 1.5-7 1.5-22.5.1-17.9 0-20.5-1.6-22.2-.9-1-2.3-1.9-3-1.9-1.3 0-9.7-4.3-12.1-6.3-1-.7-1.3-5.8-1.3-19.3 0-10.8-.4-19.2-1.1-20.6-.6-1.3-3.5-3.5-6.7-5-3.1-1.5-8.4-4.3-11.7-6.2-3.3-2-10.2-5.7-15.4-8.3l-9.4-4.8.6-8.8c.6-8.6.5-8.8-2-10.4-1.4-1-3.3-1.8-4.1-1.9-.8-.2-1.8-.8-2.2-1.4-.4-.7-.9-1.1-1.1-1.1-1.3.2-4.9-1.3-4.9-2 0-.5-.6-.9-1.3-.9-.7 0-3.4-1.3-6-3-2.6-1.6-4.7-2.6-4.7-2.2 0 .4-.4.2-.8-.3-1.1-1.7-11.7-6.5-13.8-6.4-1 .1-4.8 1.7-8.4 3.6zm15.7 10.9c3.7 2 7.1 4.1 7.5 4.7.4.7.8.8.8.4 0-.5 1.8.2 4 1.4 2.2 1.3 4 2.5 4 2.8 0 .3-5.1 3.3-11.4 6.5-11 5.8-11.5 5.9-14.7 4.6-1.9-.8-4.5-2.2-5.8-3.2-1.3-1-2.8-1.8-3.3-1.8-.4 0-3.3-1.4-6.3-3.1l-5.6-3.1 3.8-2.1c9.1-4.8 12.8-6.5 13.5-6.1.4.3.8.1.8-.5 0-.8 4.3-3.8 5.7-4.1.2 0 3.3 1.6 7 3.6zm-16.2 29l4 2.2.3 13.6.3 13.6-7.8-4.2c-4.3-2.3-9.6-5.2-11.8-6.3l-4-2.2-.3-13.7-.3-13.7 7.8 4.3c4.3 2.3 9.6 5.2 11.8 6.4zm38.1 15.9c-.2.6-4.6 3.3-9.8 5.9-5.1 2.6-10.3 5.5-11.6 6.3l-2.3 1.6.3-13.9c.3-13.6.3-13.8 2.8-15.1 1.4-.8 6.6-3.6 11.5-6.3l9-4.9.3 12.6c.1 7 .1 13.2-.2 13.8zm-68.6-1.7c0 8.1 0 8.1 11.5 14.2 4.4 2.3 8.5 4.6 9 5 2.3 1.8 18.5 10 19.7 10 .7 0 7.4-3.4 14.8-7.6 7.4-4.2 14-7.7 14.6-7.8.7-.1 1.8-.7 2.6-1.3.7-.6 2-1.3 2.8-1.5 3.1-.6 5-5.1 5-11.6 0-3.4.2-6.2.5-6.2.8 0 6.6 2.9 13.5 6.8 3 1.6 8.5 4.6 12.3 6.7l6.7 3.6v27.8l-6.1-2.9-6.2-2.9-5.1 2.6c-2.8 1.4-6.2 3.3-7.6 4.3-1.4 1-7.4 4.3-13.5 7.4-6 3.2-11.6 6.5-12.2 7.4-1 1.1-1.3 7.4-1.3 22.8v21.3l2.8 1.9c1.5 1.1 4.3 2.7 6.2 3.6 1.9.9 5.1 2.5 7 3.5l3.4 1.9-3.1 1.8c-1.7 1.1-7.5 4.1-12.9 6.9-5.5 2.7-10.1 5.3-10.4 5.6-.3.3-3.6 2.3-7.3 4.3-6.7 3.6-6.9 3.6-9.8 1.9-1.6-1-2.9-2.1-2.9-2.6 0-.4-.4-.6-1-.2-.5.3-2.6-.5-4.7-1.8s-8.5-4.9-14.3-8c-5.8-3-11.4-6.2-12.5-7.1-2-1.4-1.9-1.5.7-2.1 1.5-.4 3.2-1.3 3.9-2.1.6-.8 1.5-1.1 2-.8.5.3.9.1.9-.4s2-1.7 4.5-2.7c2.4-1.1 4.6-2.4 4.9-3 .2-.7.5-10.9.7-22.7.3-22.3-.1-24.8-3.8-24.8-1.5 0-15.4-7.2-22.3-11.5-1.9-1.2-5.9-3.4-8.8-4.9L180 230l-6 3-6 3v-27.8l7.8-4.3c4.2-2.3 9.7-5.3 12.2-6.7 6.8-3.8 11.4-6.1 12.3-6.2.4 0 .7 3.1.7 6.8zM182.6 243c.5.5 3.4 2.3 6.4 3.8 10.8 5.7 14 7.6 14 8.4 0 .4-.4.8-.9.8s-5.6 2.7-11.4 5.9l-10.6 5.9-10.3-5.4c-5.7-3-11.1-5.7-12-6-1-.3-1.8-.8-1.8-1.2 0-.4 4.8-3.2 10.6-6.2s10.8-5.8 11-6.3c.7-1 3.8-.9 5 .3zm125.1 1.8c2.6 1.5 7.8 4.3 11.5 6.2 3.6 1.9 6.4 3.8 6.2 4.2-.2.4-1.9 1.4-3.7 2.3-9.7 5.1-14.5 7.4-15.8 7.7-.8.2-1.9.9-2.4 1.6-.8 1-3.3.1-11.6-4.6-5.7-3.2-11.3-6.1-12.4-6.5-1.6-.7-1.2-1.1 2.6-3.1 2.4-1.3 7.1-3.8 10.4-5.5 3.3-1.7 6.4-3.6 6.9-4.1 1.6-1.6 3.2-1.2 8.3 1.8zM166 272.5c1.9 1.2 4.5 2.5 5.7 2.9 2.1.7 2.2 1.3 2.5 14.5l.3 13.8-6.5-3.5c-3.6-1.9-7.2-4.1-8-4.7-.8-.6-3-1.8-4.8-2.5-1.8-.7-3.6-1.8-4-2.6-.4-.7-.6-6.9-.4-13.9l.3-12.6 5.7 3.2c3.1 1.8 7.3 4.2 9.2 5.4zm43.9 4.4c0 8.8-.4 13.3-1.2 13.9-.7.5-5.9 3.4-11.7 6.3-5.8 3-10.8 5.8-11.3 6.4-.4.5-.6-5.2-.5-12.9l.3-13.9 9.5-5.1c5.2-2.8 10.4-5.6 11.5-6.3 1.1-.7 2.3-1.3 2.7-1.3.4 0 .7 5.8.7 12.9zm121.2 12.9c-.2.8-2.3 2.3-4.6 3.5-2.3 1.2-7.1 3.8-10.6 5.7-3.5 1.9-6.7 3.6-7.1 3.8-.5.2-.8-5.7-.8-13.1 0-12.7.1-13.6 2-14.2 1.1-.4 6.2-3.1 11.3-6l9.2-5.5.5 12.3c.3 6.7.3 12.8.1 13.5zm-48-20.3c4.6 2.5 9.5 5.2 10.9 6 2.5 1.3 2.5 1.6 2.8 15.1.2 11 0 13.5-1 12.7-.7-.6-5.8-3.4-11.3-6.3-5.5-2.9-10.5-5.7-11.1-6.2-1.7-1.3-1.9-23.9-.2-24.9.7-.5 1.4-.9 1.4-.9.1 0 3.9 2 8.5 4.5z"/></svg>