<?xml version="1.0" standalone="no"?>
<!DOCTYPE svg PUBLIC "-//W3C//DTD SVG 20010904//EN"
 "http://www.w3.org/TR/2001/REC-SVG-20010904/DTD/svg10.dtd">
<svg version="1.0" xmlns="http://www.w3.org/2000/svg"
 width="482.000000pt" height="482.000000pt" viewBox="0 0 482.000000 482.000000"
 preserveAspectRatio="xMidYMid meet">
<metadata>
Created by potrace 1.11, written by Peter Selinger 2001-2013
</metadata>
<g transform="translate(0.000000,482.000000) scale(0.100000,-0.100000)"
fill="#000000" stroke="none">
<path d="M1954 4172 c-253 -147 -632 -366 -842 -487 l-382 -220 0 -980 0 -980
373 -215 c204 -118 585 -337 844 -487 l473 -273 845 488 844 487 0 980 0 980
-840 485 c-462 267 -843 486 -847 487 -4 1 -214 -118 -468 -265z m971 -206
c264 -153 602 -348 752 -434 l272 -157 0 -890 0 -890 -760 -439 c-458 -264
-766 -436 -777 -434 -9 3 -231 128 -492 280 -261 151 -600 346 -752 434 l-277
159 0 890 0 890 287 165 c157 91 498 288 757 438 287 166 478 271 490 269 11
-2 236 -128 500 -281z"/>
<path d="M2260 3234 c-85 -48 -158 -92 -162 -98 -4 -6 -8 -40 -8 -76 l0 -65
-163 -89 c-89 -49 -170 -96 -179 -104 -16 -13 -18 -35 -18 -177 l0 -162 -59
-31 c-32 -18 -64 -38 -70 -46 -8 -9 -11 -68 -9 -192 l3 -179 100 -57 c55 -32
128 -72 162 -90 l62 -32 40 22 40 23 210 -117 211 -116 210 116 211 117 40
-23 41 -23 65 35 c36 19 108 60 161 90 l97 55 5 180 c6 193 5 205 -15 205 -7
0 -38 14 -69 32 l-56 32 0 162 c0 141 -2 163 -17 176 -10 8 -91 55 -181 104
l-163 89 3 74 c1 42 -2 76 -7 78 -6 2 -80 41 -165 88 -85 46 -157 85 -160 85
-3 0 -75 -39 -160 -86z m243 -49 c134 -72 132 -62 17 -123 l-100 -53 -100 52
c-55 29 -96 57 -92 61 6 6 183 107 190 108 1 0 39 -20 85 -45z m-140 -239 c14
-9 17 -27 17 -123 0 -62 -3 -113 -6 -113 -3 0 -51 25 -105 56 l-99 55 0 115 0
116 88 -48 c48 -26 95 -52 105 -58z m300 -127 c-10 -9 -191 -109 -198 -109 -3
0 -5 51 -5 114 l0 114 103 55 102 56 3 -111 c1 -61 -1 -115 -5 -119z m-573 23
c0 -44 5 -63 18 -74 31 -27 294 -168 313 -168 18 0 279 141 312 168 12 11 17
30 17 74 0 32 2 58 5 58 2 0 64 -33 137 -74 l133 -75 3 -121 3 -122 -47 26
c-26 14 -52 26 -60 26 -7 0 -83 -39 -169 -86 l-155 -87 2 -186 3 -186 55 -32
c106 -62 113 -48 -74 -151 l-166 -93 -165 92 c-91 50 -162 95 -159 100 3 5 27
20 52 33 94 48 90 37 94 244 l3 183 -40 18 c-22 10 -93 48 -157 84 -64 37
-124 67 -131 67 -8 0 -35 -12 -61 -26 l-47 -26 3 122 3 122 130 73 c72 41 133
74 138 74 4 1 7 -25 7 -57z m-73 -424 c51 -28 93 -54 93 -57 0 -4 -43 -30 -97
-59 l-96 -52 -99 52 c-54 29 -98 55 -98 58 0 7 182 110 194 110 6 0 52 -23
103 -52z m1009 0 c52 -28 94 -54 94 -57 0 -3 -44 -30 -99 -58 l-98 -53 -96 52
c-54 29 -97 55 -97 58 0 8 181 110 194 110 5 0 51 -23 102 -52z m-1148 -353
l3 -117 -88 48 c-48 26 -96 52 -105 58 -16 9 -18 27 -18 124 l0 114 103 -55
102 -56 3 -116z m282 111 l0 -114 -77 -43 c-43 -23 -88 -49 -101 -57 l-23 -15
3 119 3 119 95 52 c52 29 96 53 98 53 1 0 2 -51 2 -114z m708 11 c8 -6 12 -44
12 -122 l0 -113 -100 55 -100 55 0 115 0 115 88 -48 c48 -26 93 -51 100 -57z
m285 -131 c-10 -6 -57 -33 -105 -59 l-88 -48 0 115 0 115 103 55 102 55 3
-111 c2 -98 1 -113 -15 -122z"/>
</g>
</svg>
